<svg width="1344" height="547" xmlns="http://www.w3.org/2000/svg" xmlns:xlink="http://www.w3.org/1999/xlink" version="1.1" baseProfile="full" viewBox="0 0 1344 547">
<rect width="1344" height="547" x="0" y="0" fill="none"></rect>
<path d="M88.0586 391.5L1314 391.5" fill="none" stroke="#E0E6F1" stroke-dasharray="4,2" class="zr5-cls-5"></path>
<path d="M88.0586 336.5L1314 336.5" fill="none" stroke="#E0E6F1" stroke-dasharray="4,2" class="zr5-cls-5"></path>
<path d="M88.0586 281.5L1314 281.5" fill="none" stroke="#E0E6F1" stroke-dasharray="4,2" class="zr5-cls-5"></path>
<path d="M88.0586 225.5L1314 225.5" fill="none" stroke="#E0E6F1" stroke-dasharray="4,2" class="zr5-cls-5"></path>
<path d="M88.0586 170.5L1314 170.5" fill="none" stroke="#E0E6F1" stroke-dasharray="4,2" class="zr5-cls-5"></path>
<path d="M88.0586 115.5L1314 115.5" fill="none" stroke="#E0E6F1" stroke-dasharray="4,2" class="zr5-cls-5"></path>
<path d="M88.0586 60.5L1314 60.5" fill="none" stroke="#E0E6F1" stroke-dasharray="4,2" class="zr5-cls-5"></path>
<text dominant-baseline="central" text-anchor="middle" style="font-size:12px;font-family:system-ui, Segoe UI, roboto, Noto Sans, oxygen, ubuntu, cantarell, Fira Sans, Droid Sans, Helvetica Neue, arial, sans-serif, Apple Color Emoji, Segoe UI Emoji, Segoe UI Symbol;font-weight:bold;" y="-6" transform="translate(88.0586 45)" fill="#777">Executions</text>
<path d="M88.0586 391.5L1314 391.5" fill="none" stroke="#777" stroke-linecap="round" class="zr5-cls-5"></path>
<text dominant-baseline="central" text-anchor="middle" style="font-size:12px;font-family:system-ui, Segoe UI, roboto, Noto Sans, oxygen, ubuntu, cantarell, Fira Sans, Droid Sans, Helvetica Neue, arial, sans-serif, Apple Color Emoji, Segoe UI Emoji, Segoe UI Symbol;font-weight:bold;" xml:space="preserve" y="6" transform="translate(701.0293 486.2719)" fill="#777">Job Type (30 Jobs)</text>
<path d="M88.0586 391.5L83.0586 391.5" fill="none" stroke="#777" class="zr5-cls-5"></path>
<path d="M88.0586 336.5L83.0586 336.5" fill="none" stroke="#777" class="zr5-cls-5"></path>
<path d="M88.0586 281.5L83.0586 281.5" fill="none" stroke="#777" class="zr5-cls-5"></path>
<path d="M88.0586 225.5L83.0586 225.5" fill="none" stroke="#777" class="zr5-cls-5"></path>
<path d="M88.0586 170.5L83.0586 170.5" fill="none" stroke="#777" class="zr5-cls-5"></path>
<path d="M88.0586 115.5L83.0586 115.5" fill="none" stroke="#777" class="zr5-cls-5"></path>
<path d="M88.0586 60.5L83.0586 60.5" fill="none" stroke="#777" class="zr5-cls-5"></path>
<path d="M88.5 391.2719L88.5 396.2719" fill="none" stroke="#777" class="zr5-cls-5"></path>
<path d="M333.5 391.2719L333.5 396.2719" fill="none" stroke="#777" class="zr5-cls-5"></path>
<path d="M578.5 391.2719L578.5 396.2719" fill="none" stroke="#777" class="zr5-cls-5"></path>
<path d="M823.5 391.2719L823.5 396.2719" fill="none" stroke="#777" class="zr5-cls-5"></path>
<path d="M1069.5 391.2719L1069.5 396.2719" fill="none" stroke="#777" class="zr5-cls-5"></path>
<path d="M1314.5 391.2719L1314.5 396.2719" fill="none" stroke="#777" class="zr5-cls-5"></path>
<text dominant-baseline="central" text-anchor="end" style="font-size:12px;font-family:system-ui, Segoe UI, roboto, Noto Sans, oxygen, ubuntu, cantarell, Fira Sans, Droid Sans, Helvetica Neue, arial, sans-serif, Apple Color Emoji, Segoe UI Emoji, Segoe UI Symbol;" transform="translate(80.0586 391.2719)" fill="#777">0</text>
<text dominant-baseline="central" text-anchor="end" style="font-size:12px;font-family:system-ui, Segoe UI, roboto, Noto Sans, oxygen, ubuntu, cantarell, Fira Sans, Droid Sans, Helvetica Neue, arial, sans-serif, Apple Color Emoji, Segoe UI Emoji, Segoe UI Symbol;" transform="translate(80.0586 336.0599)" fill="#777">10,000,000</text>
<text dominant-baseline="central" text-anchor="end" style="font-size:12px;font-family:system-ui, Segoe UI, roboto, Noto Sans, oxygen, ubuntu, cantarell, Fira Sans, Droid Sans, Helvetica Neue, arial, sans-serif, Apple Color Emoji, Segoe UI Emoji, Segoe UI Symbol;" transform="translate(80.0586 280.8479)" fill="#777">20,000,000</text>
<text dominant-baseline="central" text-anchor="end" style="font-size:12px;font-family:system-ui, Segoe UI, roboto, Noto Sans, oxygen, ubuntu, cantarell, Fira Sans, Droid Sans, Helvetica Neue, arial, sans-serif, Apple Color Emoji, Segoe UI Emoji, Segoe UI Symbol;" transform="translate(80.0586 225.6359)" fill="#777">30,000,000</text>
<text dominant-baseline="central" text-anchor="end" style="font-size:12px;font-family:system-ui, Segoe UI, roboto, Noto Sans, oxygen, ubuntu, cantarell, Fira Sans, Droid Sans, Helvetica Neue, arial, sans-serif, Apple Color Emoji, Segoe UI Emoji, Segoe UI Symbol;" transform="translate(80.0586 170.424)" fill="#777">40,000,000</text>
<text dominant-baseline="central" text-anchor="end" style="font-size:12px;font-family:system-ui, Segoe UI, roboto, Noto Sans, oxygen, ubuntu, cantarell, Fira Sans, Droid Sans, Helvetica Neue, arial, sans-serif, Apple Color Emoji, Segoe UI Emoji, Segoe UI Symbol;" transform="translate(80.0586 115.212)" fill="#777">50,000,000</text>
<text dominant-baseline="central" text-anchor="end" style="font-size:12px;font-family:system-ui, Segoe UI, roboto, Noto Sans, oxygen, ubuntu, cantarell, Fira Sans, Droid Sans, Helvetica Neue, arial, sans-serif, Apple Color Emoji, Segoe UI Emoji, Segoe UI Symbol;" transform="translate(80.0586 60)" fill="#777">60,000,000</text>
<text dominant-baseline="central" text-anchor="end" style="font-size:12px;font-family:system-ui, Segoe UI, roboto, Noto Sans, oxygen, ubuntu, cantarell, Fira Sans, Droid Sans, Helvetica Neue, arial, sans-serif, Apple Color Emoji, Segoe UI Emoji, Segoe UI Symbol;" transform="matrix(0.707,-0.707,0.707,0.707,210.6527,399.2719)" fill="#777">hudson-mav...</text>
<text dominant-baseline="central" text-anchor="end" style="font-size:12px;font-family:system-ui, Segoe UI, roboto, Noto Sans, oxygen, ubuntu, cantarell, Fira Sans, Droid Sans, Helvetica Neue, arial, sans-serif, Apple Color Emoji, Segoe UI Emoji, Segoe UI Symbol;" transform="matrix(0.707,-0.707,0.707,0.707,455.841,399.2719)" fill="#777">org-jenkin...</text>
<text dominant-baseline="central" text-anchor="end" style="font-size:12px;font-family:system-ui, Segoe UI, roboto, Noto Sans, oxygen, ubuntu, cantarell, Fira Sans, Droid Sans, Helvetica Neue, arial, sans-serif, Apple Color Emoji, Segoe UI Emoji, Segoe UI Symbol;" transform="matrix(0.707,-0.707,0.707,0.707,701.0293,399.2719)" fill="#777">com-cloudb...</text>
<text dominant-baseline="central" text-anchor="end" style="font-size:12px;font-family:system-ui, Segoe UI, roboto, Noto Sans, oxygen, ubuntu, cantarell, Fira Sans, Droid Sans, Helvetica Neue, arial, sans-serif, Apple Color Emoji, Segoe UI Emoji, Segoe UI Symbol;" transform="matrix(0.707,-0.707,0.707,0.707,946.2176,399.2719)" fill="#777">hudson-mod...</text>
<text dominant-baseline="central" text-anchor="end" style="font-size:12px;font-family:system-ui, Segoe UI, roboto, Noto Sans, oxygen, ubuntu, cantarell, Fira Sans, Droid Sans, Helvetica Neue, arial, sans-serif, Apple Color Emoji, Segoe UI Emoji, Segoe UI Symbol;" transform="matrix(0.707,-0.707,0.707,0.707,1191.4059,399.2719)" fill="#777">org-jenkin...</text>
<path d="M126.0628 391.2719l169.1799 0l0 -10.5898l-169.1799 0Z" fill="rgb(63,81,181)" class="zr5-cls-6"></path>
<path d="M371.2511 391.2719l169.1799 0l0 -11.6459l-169.1799 0Z" fill="rgb(63,81,181)" class="zr5-cls-6"></path>
<path d="M616.4393 391.2719l169.1799 0l0 -16.364l-169.1799 0Z" fill="rgb(63,81,181)" class="zr5-cls-6"></path>
<path d="M861.6276 391.2719l169.1799 0l0 -113.7942l-169.1799 0Z" fill="rgb(63,81,181)" class="zr5-cls-6"></path>
<path d="M1106.8159 391.2719l169.1799 0l0 -305.9183l-169.1799 0Z" fill="rgb(63,81,181)" class="zr5-cls-6"></path>
<path d="M0 0l1225.9414 0l0 30l-1225.9414 0Z" transform="matrix(1,0,0,-1,90.8586,539.5)" fill="rgb(47,69,84)" fill-opacity="0" class="zr5-cls-5"></path>
<g clip-path="url(#zr5-c0)">
<polygon points="1225.9 0 0 0 0 5.6 42.3 5.6 84.5 5.6 126.8 5.6 169.1 5.6 211.4 5.6 253.6 5.6 295.9 5.6 338.2 5.6 380.5 5.6 422.7 5.6 465 5.6 507.3 5.6 549.6 5.6 591.8 5.6 634.1 5.6 676.4 5.6 718.7 5.6 760.9 5.6 803.2 5.6 845.5 5.6 887.8 5.6 930 5.6 972.3 5.7 1014.6 5.9 1056.8 6.3 1099.1 6.3 1141.4 6.6 1183.7 12.6 1225.9 24.4" transform="matrix(1,0,0,-1,90.8586,539.5)" fill="#d2dbee" fill-opacity="0.2" class="zr5-cls-5"></polygon>
</g>
<g clip-path="url(#zr5-c1)">
<polygon points="1225.9 0 0 0 0 5.6 42.3 5.6 84.5 5.6 126.8 5.6 169.1 5.6 211.4 5.6 253.6 5.6 295.9 5.6 338.2 5.6 380.5 5.6 422.7 5.6 465 5.6 507.3 5.6 549.6 5.6 591.8 5.6 634.1 5.6 676.4 5.6 718.7 5.6 760.9 5.6 803.2 5.6 845.5 5.6 887.8 5.6 930 5.6 972.3 5.7 1014.6 5.9 1056.8 6.3 1099.1 6.3 1141.4 6.6 1183.7 12.6 1225.9 24.4" transform="matrix(1,0,0,-1,90.8586,539.5)" fill="#8fb0f7" fill-opacity="0.2" class="zr5-cls-5"></polygon>
</g>
<g clip-path="url(#zr5-c2)">
<polygon points="1225.9 0 0 0 0 5.6 42.3 5.6 84.5 5.6 126.8 5.6 169.1 5.6 211.4 5.6 253.6 5.6 295.9 5.6 338.2 5.6 380.5 5.6 422.7 5.6 465 5.6 507.3 5.6 549.6 5.6 591.8 5.6 634.1 5.6 676.4 5.6 718.7 5.6 760.9 5.6 803.2 5.6 845.5 5.6 887.8 5.6 930 5.6 972.3 5.7 1014.6 5.9 1056.8 6.3 1099.1 6.3 1141.4 6.6 1183.7 12.6 1225.9 24.4" transform="matrix(1,0,0,-1,90.8586,539.5)" fill="#d2dbee" fill-opacity="0.2" class="zr5-cls-5"></polygon>
</g>
<g clip-path="url(#zr5-c0)">
<polyline points="0 5.6 42.3 5.6 84.5 5.6 126.8 5.6 169.1 5.6 211.4 5.6 253.6 5.6 295.9 5.6 338.2 5.6 380.5 5.6 422.7 5.6 465 5.6 507.3 5.6 549.6 5.6 591.8 5.6 634.1 5.6 676.4 5.6 718.7 5.6 760.9 5.6 803.2 5.6 845.5 5.6 887.8 5.6 930 5.6 972.3 5.7 1014.6 5.9 1056.8 6.3 1099.1 6.3 1141.4 6.6 1183.7 12.6 1225.9 24.4" transform="matrix(1,0,0,-1,90.8586,539.5)" fill="none" stroke="#d2dbee" stroke-width="0.5" class="zr5-cls-5"></polyline>
</g>
<g clip-path="url(#zr5-c1)">
<polyline points="0 5.6 42.3 5.6 84.5 5.6 126.8 5.6 169.1 5.6 211.4 5.6 253.6 5.6 295.9 5.6 338.2 5.6 380.5 5.6 422.7 5.6 465 5.6 507.3 5.6 549.6 5.6 591.8 5.6 634.1 5.6 676.4 5.6 718.7 5.6 760.9 5.6 803.2 5.6 845.5 5.6 887.8 5.6 930 5.6 972.3 5.7 1014.6 5.9 1056.8 6.3 1099.1 6.3 1141.4 6.6 1183.7 12.6 1225.9 24.4" transform="matrix(1,0,0,-1,90.8586,539.5)" fill="none" stroke="#8fb0f7" stroke-width="0.5" class="zr5-cls-5"></polyline>
</g>
<g clip-path="url(#zr5-c2)">
<polyline points="0 5.6 42.3 5.6 84.5 5.6 126.8 5.6 169.1 5.6 211.4 5.6 253.6 5.6 295.9 5.6 338.2 5.6 380.5 5.6 422.7 5.6 465 5.6 507.3 5.6 549.6 5.6 591.8 5.6 634.1 5.6 676.4 5.6 718.7 5.6 760.9 5.6 803.2 5.6 845.5 5.6 887.8 5.6 930 5.6 972.3 5.7 1014.6 5.9 1056.8 6.3 1099.1 6.3 1141.4 6.6 1183.7 12.6 1225.9 24.4" transform="matrix(1,0,0,-1,90.8586,539.5)" fill="none" stroke="#d2dbee" stroke-width="0.5" class="zr5-cls-5"></polyline>
</g>
<path d="M0 0l1225.9414 0l0 30l-1225.9414 0Z" transform="matrix(1,0,0,-1,90.8586,539.5)" fill="none" class="zr5-cls-8"></path>
<path d="M1059 0l166.9414 0l0 30l-166.9414 0Z" transform="matrix(1,0,0,-1,90.8586,539.5)" fill="rgb(135,175,255)" fill-opacity="0.2" class="zr5-cls-5"></path>
<path d="M3.5 0.5L1222.5 0.5A3 3 0 0 1 1225.5 3.5L1225.5 26.5A3 3 0 0 1 1222.5 29.5L3.5 29.5A3 3 0 0 1 0.5 26.5L0.5 3.5A3 3 0 0 1 3.5 0.5" transform="matrix(1,0,0,-1,90.8586,539.5)" fill="rgb(0,0,0)" fill-opacity="0" stroke="#d2dbee" class="zr5-cls-5"></path>
<path d="M1059 29.5L1225.9414 29.5L1225.9414 34.5A2 2 0 0 1 1223.9414 36.5L1061 36.5A2 2 0 0 1 1059 34.5L1059 29.5" transform="matrix(1,0,0,-1,90.8586,539.5)" fill="rgb(210,219,238)" fill-opacity="0.7" class="zr5-cls-5"></path>
<path d="M-2.2408 -1.6796C-1.8674 -1.6796 -1.6817 -1.4939 -1.6817 -1.1204L-1.6817 1.1204C-1.6817 1.4939 -1.8674 1.6796 -2.2408 1.6796C-2.6143 1.6796 -2.8 1.4939 -2.8 1.1204L-2.8 -1.1204C-2.8 -1.4939 -2.6143 -1.6796 -2.2408 -1.6796ZM0 -1.6796C0.3735 -1.6796 0.5592 -1.4939 0.5592 -1.1204L0.5592 1.1204C0.5592 1.4939 0.3735 1.6796 0 1.6796C-0.3735 1.6796 -0.5592 1.4939 -0.5592 1.1204L-0.5592 -1.1204C-0.5592 -1.4939 -0.3735 -1.6796 0 -1.6796ZM2.2408 -1.6796C2.6143 -1.6796 2.8 -1.4939 2.8 -1.1204L2.8 1.1204C2.8 1.4939 2.6143 1.6796 2.2408 1.6796C1.8674 1.6796 1.6817 1.4939 1.6817 1.1204L1.6817 -1.1204C1.6796 -1.4939 1.8674 -1.6796 2.2408 -1.6796Z" transform="matrix(1,0,0,-1,1233.3293,506.5)" fill="#fff" class="zr5-cls-5"></path>
<path d="M0 1.628L0 2M0 0L0 0.375M-0.1 0.375L0.1 0.375A0.1 0.1 0 0 1 0.2 0.475L0.2 1.525A0.1 0.1 0 0 1 0.1 1.625L-0.1 1.625A0.1 0.1 0 0 1 -0.2 1.525L-0.2 0.475A0.1 0.1 0 0 1 -0.1 0.375Z" transform="matrix(15,0,0,-15,1150.8586,539.5)" fill="rgb(255,255,255)" stroke="rgb(172,184,209)" stroke-width="0.06666666666666667" class="zr5-cls-9"></path>
<path d="M0 1.628L0 2M0 0L0 0.375M-0.1 0.375L0.1 0.375A0.1 0.1 0 0 1 0.2 0.475L0.2 1.525A0.1 0.1 0 0 1 0.1 1.625L-0.1 1.625A0.1 0.1 0 0 1 -0.2 1.525L-0.2 0.475A0.1 0.1 0 0 1 -0.1 0.375Z" transform="matrix(15,0,0,-15,1315.8,539.5)" fill="#fff" stroke="#ACB8D1" stroke-width="0.06666666666666667" class="zr5-cls-9"></path>
<path d="M-171.7969 -5l343.5938 0l0 26l-343.5937 0Z" transform="translate(672 5)" fill="rgb(0,0,0)" fill-opacity="0" stroke="#ccc" stroke-width="0" class="zr5-cls-5"></path>
<text dominant-baseline="central" text-anchor="middle" style="font-size:16px;font-family:system-ui, Segoe UI, roboto, Noto Sans, oxygen, ubuntu, cantarell, Fira Sans, Droid Sans, Helvetica Neue, arial, sans-serif, Apple Color Emoji, Segoe UI Emoji, Segoe UI Symbol;font-weight:bold;" xml:space="preserve" y="8" transform="translate(672 5)" fill="#212529">Job Executions - 10/2024 (Total: 84,070,586)</text>
<defs >
<clipPath id="zr5-c0">
<path d="M0 0l1059 0l0 30l-1059 0Z" transform="matrix(1,0,0,-1,90.8586,539.5)" fill="#000" class="zr5-cls-7"></path>
</clipPath>
<clipPath id="zr5-c1">
<path d="M1059 0l166.9414 0l0 30l-166.9414 0Z" transform="matrix(1,0,0,-1,90.8586,539.5)" fill="#000" class="zr5-cls-7"></path>
</clipPath>
<clipPath id="zr5-c2">
<path d="M1225.9414 0l0 0l0 30l0 0Z" transform="matrix(1,0,0,-1,90.8586,539.5)" fill="#000" class="zr5-cls-7"></path>
</clipPath>
</defs>
<style ><![CDATA[
.zr5-cls-5:hover {
pointer-events:none;
}
.zr5-cls-6:hover {
cursor:pointer;
fill:rgba(69,89,199,1);
}
.zr5-cls-7:hover {
cursor:pointer;
fill:rgba(0,0,0,1);
}
.zr5-cls-8:hover {
cursor:pointer;
fill:rgba(0,0,0,0);
}
.zr5-cls-9:hover {
cursor:pointer;
fill:rgba(255,255,255,1);
stroke:#8FB0F7;
}

]]>

</style>
</svg>